HIERARCHY
ROOT Hips
{
	OFFSET	0.00	0.00	0.00
	CHANNELS 6 Xposition Yposition Zposition Zrotation Xrotation Yrotation
	JOINT LeftUpLeg
	{
		OFFSET	 0.126116	-0.014019	-0.065224
		CHANNELS 3 Zrotation Xrotation Yrotation
		JOINT LeftLeg
		{
			OFFSET	 0.000000	 0.000000	 0.569914
			CHANNELS 3 Zrotation Xrotation Yrotation
			JOINT LeftFoot
			{
				OFFSET	 0.000000	 0.000000	 0.544423
				CHANNELS 3 Zrotation Xrotation Yrotation
				JOINT LeftToeBase
				{
					OFFSET	 0.000000	 0.000000	 0.207117
					CHANNELS 3 Zrotation Xrotation Yrotation
					End Site
					{
						OFFSET	 0.000000	 0.000000	 0.207117
					}
				}
			}
		}
	}
	JOINT RightUpLeg
	{
		OFFSET	-0.124023	-0.008373	-0.065224
		CHANNELS 3 Zrotation Xrotation Yrotation
		JOINT RightLeg
		{
			OFFSET	 0.000000	 0.000000	 0.570047
			CHANNELS 3 Zrotation Xrotation Yrotation
			JOINT RightFoot
			{
				OFFSET	 0.000000	 0.000000	 0.544354
				CHANNELS 3 Zrotation Xrotation Yrotation
				JOINT RightToeBase
				{
					OFFSET	 0.000000	 0.000000	 0.207540
					CHANNELS 3 Zrotation Xrotation Yrotation
					End Site
					{
						OFFSET	 0.000000	 0.000000	 0.207540
					}
				}
			}
		}
	}
	JOINT Spine
	{
		OFFSET	 0.000184	-0.007763	 0.117403
		CHANNELS 3 Zrotation Xrotation Yrotation
		JOINT Spine1
		{
			OFFSET	 0.000000	 0.000000	 0.137269
			CHANNELS 3 Zrotation Xrotation Yrotation
			JOINT Spine2
			{
				OFFSET	 0.000000	 0.000000	 0.156879
				CHANNELS 3 Zrotation Xrotation Yrotation
				JOINT LeftShoulder
				{
					OFFSET	 0.080501	-0.002496	 0.160144
					CHANNELS 3 Zrotation Xrotation Yrotation
					JOINT LeftArm
					{
						OFFSET	 0.000000	 0.000000	 0.164363
						CHANNELS 3 Zrotation Xrotation Yrotation
						JOINT LeftForeArm
						{
							OFFSET	 0.000000	 0.000000	 0.364576
							CHANNELS 3 Zrotation Xrotation Yrotation
							JOINT LeftHand
							{
								OFFSET	 0.000000	 0.000000	 0.360812
								CHANNELS 3 Zrotation Xrotation Yrotation
								JOINT LeftHandIndex1
								{
									OFFSET	 0.000000	 0.000000	 0.086006
									CHANNELS 3 Zrotation Xrotation Yrotation
									JOINT LeftHandIndex2
									{
										OFFSET	 0.000000	 0.000000	 0.047236
										CHANNELS 3 Zrotation Xrotation Yrotation
										JOINT LeftHandIndex3
										{
											OFFSET	-0.004284	-0.000551	 0.038166
											CHANNELS 3 Zrotation Xrotation Yrotation
											End Site
											{
												OFFSET	-0.004284	-0.000551	 0.038166
											}
										}
									}
								}
							}
						}
					}
				}
				JOINT Neck
				{
					OFFSET	 0.000000	 0.000000	 0.176489
					CHANNELS 3 Zrotation Xrotation Yrotation
					JOINT Head
					{
						OFFSET	 0.000000	-0.001747	 0.077940
						CHANNELS 3 Zrotation Xrotation Yrotation
						End Site
						{
							OFFSET	 0.000000	-0.001747	 0.077940
						}
					}
				}
				JOINT RightShoulder
				{
					OFFSET	-0.080363	 0.000306	 0.159706
					CHANNELS 3 Zrotation Xrotation Yrotation
					JOINT RightArm
					{
						OFFSET	 0.000000	 0.000000	 0.164196
						CHANNELS 3 Zrotation Xrotation Yrotation
						JOINT RightForeArm
						{
							OFFSET	 0.000000	 0.000000	 0.365611
							CHANNELS 3 Zrotation Xrotation Yrotation
							JOINT RightHand
							{
								OFFSET	 0.000000	 0.000000	 0.360648
								CHANNELS 3 Zrotation Xrotation Yrotation
								JOINT RightHandIndex1
								{
									OFFSET	 0.000000	 0.000000	 0.069977
									CHANNELS 3 Zrotation Xrotation Yrotation
									JOINT RightHandIndex2
									{
										OFFSET	 0.000000	 0.000000	 0.052305
										CHANNELS 3 Zrotation Xrotation Yrotation
										JOINT RightHandIndex3
										{
											OFFSET	 0.009002	-0.000782	 0.042196
											CHANNELS 3 Zrotation Xrotation Yrotation
											End Site
											{
												OFFSET	 0.009002	-0.000782	 0.042196
											}
										}
									}
								}
							}
						}
					}
				}
			}
		}
	}
}
MOTION
Frames:    9
Frame Time: 0.03333334
-0.057913	-2.235800	 1.208315	 4.258295	-1.672528	-3.250587	 23.914490	-8.716315	-176.182500	 0.443837	-37.023410	 0.045962	 56.333070	 81.709590	-59.928090	-2.371055	 31.335550	-0.063609	-27.984860	-31.500570	-176.656200	 9.905809	-50.864480	 8.256135	 0.477888	 69.411580	 7.278949	 2.358027	 33.138560	 0.106440	-11.432550	 8.936315	 1.661120	-0.358148	 2.566491	 0.765407	-2.373906	-2.438499	-1.078532	-93.798530	 58.889430	 175.695400	 10.215850	 29.295900	-40.093520	 10.684150	-1.378770	-6.671907	-5.603235	-12.254180	-7.484169	-4.869400	 19.241610	-2.786457	-3.889574	 21.369740	 2.210931	-4.808246	 5.545645	 0.146961	-0.117206	-5.025814	 0.163102	-4.543777	 2.308287	 2.628352	 89.822910	 61.593720	-179.903000	-18.849380	 48.555790	 14.423280	-12.807410	-1.428515	 6.706320	 0.589622	 1.263443	 0.613911	 6.302497	 25.788800	-0.570530	 1.757473	 45.714890	-6.878666	 0.382003	 24.905460	 3.642036
-0.061018	-2.307125	 1.205359	 5.382250	-0.932726	-3.157022	 22.214410	-5.659250	-177.770900	 1.081107	-35.524800	 0.423249	 62.507860	 83.935440	-66.219210	-2.369051	 31.673130	-0.071242	-31.531110	-34.203700	 179.106700	 9.206187	-40.006150	 6.443688	-7.898459	 68.879120	 15.978480	 2.358955	 33.002830	 0.103290	-21.004140	 8.543394	 1.561234	-0.891654	 2.707467	 0.429858	-1.578081	-2.697684	-0.594948	-94.029280	 59.017480	 175.187400	 7.610086	 25.536670	-41.486400	 13.383110	-2.347572	-8.619603	-3.444884	-14.978520	-8.971353	-4.866728	 19.311460	-2.791338	-3.879110	 21.503680	 2.200297	-4.806511	 5.566077	 0.145768	-0.055034	-5.093240	 0.208294	-3.558048	 2.242376	 2.455230	 89.745540	 61.690240	 179.912700	-18.893880	 50.525970	 11.662270	-16.953150	-2.413423	 8.653338	-1.566864	-0.333202	 0.465815	 6.285150	 24.180310	-0.542804	 1.969876	 44.009400	-7.068180	 0.671224	 23.636700	 3.495468
-0.063841	-2.359318	 1.199965	 6.066679	-0.194300	-3.172587	 21.151810	-3.657647	-178.785500	 1.340681	-34.563610	 0.560535	 71.014880	 85.597760	-74.663870	-2.367610	 31.909150	-0.076607	-33.730430	-34.937560	 176.048900	 9.061558	-30.492930	 5.019214	-13.495400	 68.294330	 20.950030	 2.359388	 32.938260	 0.101788	-27.348620	 8.054782	 1.520478	-1.253803	 2.756189	 0.181796	-1.003184	-2.849766	-0.245951	-94.216320	 59.010350	 174.789400	 5.785782	 23.130060	-42.288180	 15.609030	-3.189258	-9.936398	-1.753365	-17.367120	-9.238226	-4.859457	 19.500600	-2.804531	-3.867246	 21.655110	 2.188242	-4.800919	 5.632014	 0.141907	-0.019606	-5.126466	 0.263811	-2.884636	 2.191678	 2.401360	 89.666330	 61.786490	 179.722500	-18.684750	 51.750590	 9.744287	-20.164640	-3.264990	 9.965745	-3.429274	-1.622904	 0.146505	 6.264377	 22.756370	-0.567906	 2.124919	 42.689250	-7.205307	 0.968537	 22.302360	 3.350342
-0.068152	-2.427126	 1.190115	 6.456702	 0.629995	-3.475889	 20.282860	-0.351333	-179.960100	 1.532121	-32.606690	 0.635606	 99.276440	 87.582970	-102.794600	-2.364107	 32.465170	-0.089320	-34.367790	-36.340440	 173.152600	 9.230050	-20.800390	 3.564737	-16.849140	 67.046680	 23.126260	 2.360021	 32.843970	 0.099610	-34.211360	 7.274121	 1.715393	-1.698371	 3.138505	-0.079853	-0.262070	-3.056388	 0.136026	-94.405710	 58.925710	 174.398800	 3.786706	 20.827200	-43.234350	 17.739630	-4.354318	-11.436710	-0.092499	-20.699200	-8.130797	-4.841109	 19.914930	-2.821024	-3.844328	 21.945750	 2.164961	-4.785921	 5.808437	 0.131539	 0.001505	-5.206633	 0.324896	-2.110701	 2.112426	 2.427519	 89.526210	 61.954190	 179.383100	-18.010980	 53.032750	 7.280722	-24.559250	-4.448118	 11.453070	-6.156448	-3.246951	-1.027485	 6.227235	 20.650230	-0.643031	 2.323782	 40.895790	-7.379544	 1.429038	 20.176280	 3.137157
-0.073233	-2.489254	 1.177740	 6.599819	 1.002267	-3.727966	 19.503030	 3.295276	 178.811200	 1.638005	-30.412390	 0.650721	 154.470800	 88.720680	-157.921100	-2.355231	 33.765980	-0.119545	-33.568550	-40.369620	 171.302100	 9.273225	-19.119940	 3.315946	-22.908040	 73.505520	 27.898000	 2.349188	 34.364460	 0.135296	-39.561230	 6.780504	 1.939608	-2.064704	 3.603136	-0.342079	 0.448476	-3.229931	 0.488769	-94.498630	 58.865060	 174.211100	 2.127818	 19.597830	-43.985310	 19.762830	-5.510492	-12.667940	 1.280139	-23.419310	-7.030244	-4.826122	 20.300620	-2.849383	-3.816055	 22.301440	 2.136234	-4.762958	 6.077724	 0.115625	 0.037549	-5.304332	 0.347034	-1.382462	 2.003485	 2.386509	 89.422860	 62.033310	 179.131500	-16.887320	 53.812350	 4.870169	-28.631220	-5.620187	 12.671410	-8.698758	-5.029458	-2.670058	 6.186770	 18.450740	-0.716580	 2.608712	 38.111840	-7.625556	 1.897959	 17.939160	 2.935307
-0.078647	-2.553424	 1.167808	 6.864058	 1.058162	-3.852366	 18.790140	 7.715482	 177.418600	 1.821131	-26.710420	 0.660140	-98.133340	 88.888110	 94.734390	-2.335711	 36.229000	-0.178794	-33.178060	-41.970090	 170.328600	 9.945670	-18.321650	 3.400386	-24.997040	 75.977650	 28.751460	 2.335171	 36.094260	 0.177165	-43.746750	 6.808549	 2.084096	-2.475858	 3.150548	-0.673200	 1.067650	-3.177789	 0.829204	-94.544730	 58.917810	 174.104300	 0.947326	 19.210070	-43.854220	 21.936240	-6.599422	-13.656440	 2.496936	-26.534260	-6.590775	-4.845119	 20.503050	-3.019321	-3.788736	 22.641800	 2.108501	-4.732584	 6.432343	 0.094481	 0.107052	-5.397670	 0.350802	-0.695382	 1.953495	 2.185622	 89.358310	 61.958070	 178.978100	-15.619120	 54.273270	 2.465235	-32.030080	-6.716320	 13.646540	-10.829080	-7.077630	-4.246849	 6.164706	 16.309600	-0.683632	 2.865202	 35.367890	-7.842776	 2.336769	 15.782380	 2.761070
-0.085097	-2.623549	 1.160156	 7.097372	 1.031805	-3.507673	 17.896410	 11.102120	 175.426400	 2.280089	-25.977430	 0.844474	-76.542490	 86.838630	 73.235200	-2.287290	 40.919510	-0.300562	-32.603940	-40.691810	 169.902100	 9.764204	-18.677160	 3.403950	-23.017200	 75.353290	 27.018800	 2.338670	 35.682410	 0.167075	-47.063130	 6.745691	 1.938483	-3.036810	 2.321295	-1.426939	 1.621223	-2.810109	 1.293398	-94.521170	 59.198890	 174.107700	 0.188079	 19.422330	-42.849230	 23.881410	-7.673596	-14.505900	 3.436612	-29.899010	-6.290979	-4.876846	 20.598570	-3.232314	-3.765142	 22.933380	 2.084548	-4.690805	 6.917203	 0.065250	 0.178447	-5.481719	 0.279773	 0.002794	 1.957227	 2.054656	 89.356060	 61.667850	 178.983600	-14.568590	 54.374150	 0.429728	-35.094140	-7.797784	 14.486150	-13.081590	-9.255242	-5.800251	 6.186103	 14.119060	-0.445410	 3.015392	 33.646770	-7.967854	 2.760563	 13.644610	 2.606928
-0.092806	-2.694796	 1.155059	 7.353609	 0.704945	-2.566659	 17.490950	 13.331760	 172.701600	 1.797043	-27.180440	 0.659864	-56.770710	 83.717530	 55.028980	-2.157973	 49.012870	-0.550322	-30.872700	-38.435290	 170.221200	 6.602526	-21.651910	 2.728738	-22.897220	 72.303630	 31.355530	 2.340818	 35.423970	 0.160779	-48.939010	 6.820693	 1.135000	-3.505003	 1.597713	-1.899704	 2.050115	-2.276773	 1.509859	-94.453930	 59.370520	 174.223300	 0.102399	 19.810940	-41.592080	 25.309920	-8.652396	-15.193900	 4.680643	-32.137090	-5.278577	-4.893466	 20.715230	-3.366703	-3.753803	 23.072790	 2.073022	-4.635800	 7.550385	 0.026477	 0.259777	-5.475768	 0.241414	 0.636936	 2.092542	 2.271618	 89.353730	 61.421790	 178.986900	-13.757560	 54.261980	-0.827768	-37.730020	-8.782117	 15.161580	-15.520880	-11.276980	-7.023611	 6.271672	 11.990640	 0.034739	 3.131522	 32.254040	-8.063369	 3.123526	 11.773740	 2.486392
-0.102354	-2.778247	 1.153207	 8.485054	-0.113988	-1.536467	 17.077680	 11.917820	 169.350800	-0.460679	-35.094990	-0.467667	-38.052030	 78.265530	 41.234570	-1.927028	 57.383540	-0.899338	-28.897740	-37.311830	 171.444400	 6.485756	-28.226960	 3.440249	-26.419080	 66.292360	 39.117950	 2.333298	 36.308350	 0.182458	-49.226030	 7.221334	 0.204245	-3.699416	 1.085755	-1.942873	 2.329437	-1.731189	 1.468852	-94.388600	 59.036000	 174.418000	 0.822800	 20.085180	-40.440670	 26.479990	-9.630025	-15.809110	 6.752120	-32.894320	-3.580475	-4.896287	 20.934810	-3.457006	-3.732769	 23.329810	 2.051678	-4.566272	 8.342230	-0.022951	 0.376449	-5.408880	 0.291296	 1.215332	 2.435208	 2.515990	 89.206200	 61.415100	 178.638500	-12.877710	 54.250760	-1.439592	-39.685520	-9.763090	 15.768270	-17.851630	-13.556090	-7.191415	 6.346040	 9.752632	 0.397637	 3.319351	 29.881100	-8.215422	 3.452938	 10.046510	 2.386503
